<svg width="157" height="31" viewBox="0 0 157 31" fill="none" xmlns="http://www.w3.org/2000/svg">
<g clip-path="url(#clip0_1461_322)">
<path d="M145.392 30.6386C143.179 30.6386 141.19 30.1761 139.427 29.2513C137.664 28.3264 136.283 27.0474 135.283 25.4141C134.284 23.7612 133.785 21.9016 133.785 19.8354C133.785 17.7692 134.284 15.9195 135.283 14.2862C136.283 12.6333 137.664 11.3444 139.427 10.4195C141.19 9.49466 143.179 9.03223 145.392 9.03223C147.606 9.03223 149.595 9.49466 151.358 10.4195C153.121 11.3444 154.502 12.6333 155.501 14.2862C156.5 15.9195 157 17.7692 157 19.8354C157 21.9016 156.5 23.7612 155.501 25.4141C154.502 27.0474 153.121 28.3264 151.358 29.2513C149.595 30.1761 147.606 30.6386 145.392 30.6386ZM145.392 25.0009C146.254 25.0009 147.028 24.7942 147.714 24.381C148.419 23.9481 148.977 23.3479 149.389 22.5805C149.8 21.7934 150.006 20.8783 150.006 19.8354C150.006 18.7925 149.8 17.8873 149.389 17.1199C148.977 16.3327 148.419 15.7326 147.714 15.3193C147.028 14.8864 146.254 14.67 145.392 14.67C144.53 14.67 143.747 14.8864 143.041 15.3193C142.356 15.7326 141.807 16.3327 141.396 17.1199C140.984 17.8873 140.779 18.7925 140.779 19.8354C140.779 20.8783 140.984 21.7934 141.396 22.5805C141.807 23.3479 142.356 23.9481 143.041 24.381C143.747 24.7942 144.53 25.0009 145.392 25.0009Z" fill="white"/>
<path d="M131.254 9.03223V30.1789H125.567L117.769 20.5723V30.1789H111.027V9.03223H116.714L124.512 18.6388V9.03223H131.254Z" fill="white"/>
<path d="M100.683 9.03223H107.579V30.1789H100.683V9.03223Z" fill="white"/>
<path d="M64.7133 10.4513L75.657 30.5091C76.1103 30.6333 76.3273 30.6192 76.6793 30.5091L79.6858 24.8981C79.8087 24.4434 79.8208 24.1581 79.6858 23.6082L71.7486 9.4194C71.7486 9.4194 65.3146 9.29041 65.2545 9.29041C65.1943 9.29041 64.8937 9.54839 64.7734 9.87087C64.6532 10.1933 64.7133 10.4513 64.7133 10.4513Z" fill="white"/>
<path d="M97.4084 11.0867L87.2188 30.3979C87.1536 30.5214 87.0365 30.5969 86.9102 30.5969H86.3149C86.191 30.5969 86.0758 30.5242 86.0099 30.4045L81.163 21.6013C81.1383 21.5566 81.1214 21.5071 81.1151 21.4547C81.0956 21.2935 81.0614 20.9203 81.1257 20.6735C81.1708 20.5002 81.2884 20.2969 81.3754 20.1619C81.438 20.0646 81.5389 20.012 81.6447 20.012H84.6814C84.8066 20.012 84.9229 19.9378 84.9884 19.8161L87.9279 14.3567C88.0038 14.2158 87.9982 14.0367 87.9137 13.9024L86.1245 11.056C86.0807 10.9862 86.0571 10.9025 86.0571 10.8166V9.56891C86.0571 9.34374 86.216 9.16054 86.4134 9.15814L96.7471 9.03225C96.8552 9.03093 96.9583 9.0849 97.0228 9.18388C97.1579 9.39125 97.383 9.77124 97.4463 10.0886C97.5003 10.3595 97.4714 10.7602 97.455 10.9318C97.4498 10.9869 97.4334 11.0392 97.4084 11.0867Z" fill="white"/>
<path d="M82.9119 17.5575L78.4323 17.4438L76.7868 14.261L75.7812 12.4423L75.0498 10.851V10.2826L75.1412 9.71425L75.2327 9.48691L75.5069 9.1459L81.632 9.03223L84.7402 14.7157L82.9119 17.5575Z" fill="white"/>
<path d="M82.9119 17.5575L78.4323 17.4438L76.7868 14.261L75.7812 12.4423L75.0498 10.851V10.2826L75.1412 9.71425L75.2327 9.48691L75.5069 9.1459L81.632 9.03223L84.7402 14.7157L82.9119 17.5575Z" fill="url(#paint0_linear_1461_322)"/>
<path d="M82.9119 17.5575L78.4323 17.4438L76.7868 14.261L75.7812 12.4423L75.0498 10.851V10.2826L75.1412 9.71425L75.2327 9.48691L75.5069 9.1459L81.632 9.03223L84.7402 14.7157L82.9119 17.5575Z" fill="url(#paint1_linear_1461_322)"/>
<path d="M82.9119 17.5575L78.4323 17.4438L76.7868 14.261L75.7812 12.4423L75.0498 10.851V10.2826L75.1412 9.71425L75.2327 9.48691L75.5069 9.1459L81.632 9.03223L84.7402 14.7157L82.9119 17.5575Z" fill="white"/>
<path d="M82.9119 17.5575L78.4323 17.4438L76.7868 14.261L75.7812 12.4423L75.0498 10.851V10.2826L75.1412 9.71425L75.2327 9.48691L75.5069 9.1459L81.632 9.03223L84.7402 14.7157L82.9119 17.5575Z" fill="url(#paint2_linear_1461_322)"/>
<path d="M82.9119 17.5575L78.4323 17.4438L76.7868 14.261L75.7812 12.4423L75.0498 10.851V10.2826L75.1412 9.71425L75.2327 9.48691L75.5069 9.1459L81.632 9.03223L84.7402 14.7157L82.9119 17.5575Z" fill="url(#paint3_linear_1461_322)"/>
<g filter="url(#filter0_f_1461_322)">
<path d="M83.3038 17.9823L78.601 17.8629L76.8734 14.5215L75.8176 12.6121L75.0498 10.9414V10.3448L75.1458 9.74811L75.2418 9.50944L75.5297 9.15143L81.9601 9.0321L85.2234 14.9989L83.3038 17.9823Z" fill="white"/>
<path d="M83.3038 17.9823L78.601 17.8629L76.8734 14.5215L75.8176 12.6121L75.0498 10.9414V10.3448L75.1458 9.74811L75.2418 9.50944L75.5297 9.15143L81.9601 9.0321L85.2234 14.9989L83.3038 17.9823Z" fill="url(#paint4_linear_1461_322)"/>
<path d="M83.3038 17.9823L78.601 17.8629L76.8734 14.5215L75.8176 12.6121L75.0498 10.9414V10.3448L75.1458 9.74811L75.2418 9.50944L75.5297 9.15143L81.9601 9.0321L85.2234 14.9989L83.3038 17.9823Z" fill="url(#paint5_linear_1461_322)"/>
</g>
<path d="M83.3038 17.9823L78.601 17.8629L76.8734 14.5215L75.8176 12.6121L75.0498 10.9414V10.3448L75.1458 9.74811L75.2418 9.50944L75.5297 9.15143L81.9601 9.0321L85.2234 14.9989L83.3038 17.9823Z" fill="white"/>
<path d="M83.3038 17.9823L78.601 17.8629L76.8734 14.5215L75.8176 12.6121L75.0498 10.9414V10.3448L75.1458 9.74811L75.2418 9.50944L75.5297 9.15143L81.9601 9.0321L85.2234 14.9989L83.3038 17.9823Z" fill="url(#paint6_linear_1461_322)"/>
<path d="M83.3038 17.9823L78.601 17.8629L76.8734 14.5215L75.8176 12.6121L75.0498 10.9414V10.3448L75.1458 9.74811L75.2418 9.50944L75.5297 9.15143L81.9601 9.0321L85.2234 14.9989L83.3038 17.9823Z" fill="url(#paint7_linear_1461_322)"/>
<path d="M53.824 30.6386C52.1126 30.6386 50.4406 30.4516 48.808 30.0778C47.195 29.6842 45.8672 29.1627 44.8247 28.5134L47.0671 23.4365C48.0506 24.0071 49.1522 24.4696 50.3718 24.8238C51.5913 25.1583 52.7618 25.3255 53.883 25.3255C54.8468 25.3255 55.5353 25.237 55.9484 25.0599C56.3615 24.8631 56.568 24.5778 56.568 24.2039C56.568 23.771 56.2926 23.4463 55.7419 23.2298C55.2107 23.0134 54.3256 22.7773 53.0863 22.5214C51.493 22.1869 50.1652 21.8327 49.103 21.4588C48.0408 21.0653 47.1163 20.4356 46.3295 19.5698C45.5426 18.6842 45.1492 17.4937 45.1492 15.9982C45.1492 14.6995 45.5131 13.5188 46.2409 12.4562C46.9688 11.3936 48.0506 10.5573 49.4866 9.94725C50.9422 9.33724 52.7027 9.03223 54.7682 9.03223C56.1844 9.03223 57.5712 9.18965 58.9285 9.5045C60.3054 9.79967 61.5152 10.2424 62.5577 10.8328L60.4628 15.8801C58.4367 14.8569 56.5188 14.3453 54.7091 14.3453C52.9191 14.3453 52.0241 14.7782 52.0241 15.644C52.0241 16.0572 52.2897 16.3721 52.8208 16.5885C53.3519 16.7853 54.2272 17.0018 55.4468 17.2379C57.0204 17.5331 58.3482 17.8775 59.4301 18.271C60.512 18.6449 61.4463 19.2647 62.2332 20.1306C63.0397 20.9964 63.4429 22.1771 63.4429 23.6726C63.4429 24.9713 63.079 26.152 62.3512 27.2146C61.6234 28.2576 60.5316 29.0939 59.076 29.7236C57.6401 30.3336 55.8894 30.6386 53.824 30.6386Z" fill="white"/>
<path d="M36.4942 26.5736H28.6704L27.2881 30.1791H20.229L29.2293 9.49219H36.053L45.0533 30.1791H37.8766L36.4942 26.5736ZM34.5824 21.5497L32.5823 16.3484L30.5823 21.5497H34.5824Z" fill="white"/>
<path d="M11.4601 30.6386C9.28561 30.6386 7.32662 30.186 5.58312 29.2808C3.83962 28.3559 2.46833 27.0769 1.46924 25.4436C0.489747 23.7907 0 21.9213 0 19.8354C0 17.7495 0.489747 15.89 1.46924 14.2567C2.46833 12.6038 3.83962 11.3247 5.58312 10.4195C7.32662 9.49467 9.28561 9.03223 11.4601 9.03223C13.4583 9.03223 15.2409 9.38644 16.8081 10.0948C18.3753 10.8032 19.6683 11.8265 20.6869 13.1646L16.3086 17.0903C15.0352 15.4768 13.5366 14.67 11.8127 14.67C10.3631 14.67 9.19746 15.1422 8.31591 16.0868C7.43437 17.0116 6.99359 18.2612 6.99359 19.8354C6.99359 21.4096 7.43437 22.669 8.31591 23.6136C9.19746 24.5384 10.3631 25.0009 11.8127 25.0009C13.5366 25.0009 15.0352 24.1941 16.3086 22.5805L20.6869 26.5062C19.6683 27.8443 18.3753 28.8676 16.8081 29.576C15.2409 30.2844 13.4583 30.6386 11.4601 30.6386Z" fill="white"/>
</g>
<defs>
<filter id="filter0_f_1461_322" x="66.6498" y="0.632105" width="26.9738" height="25.7502" filterUnits="userSpaceOnUse" color-interpolation-filters="sRGB">
<feFlood flood-opacity="0" result="BackgroundImageFix"/>
<feBlend mode="normal" in="SourceGraphic" in2="BackgroundImageFix" result="shape"/>
<feGaussianBlur stdDeviation="4.2" result="effect1_foregroundBlur_1461_322"/>
</filter>
<linearGradient id="paint0_linear_1461_322" x1="82.0924" y1="9.03223" x2="76.9774" y2="16.2968" gradientUnits="userSpaceOnUse">
<stop stop-color="#FFED72"/>
<stop offset="1" stop-color="#FB5A00"/>
</linearGradient>
<linearGradient id="paint1_linear_1461_322" x1="79.895" y1="9.03223" x2="79.895" y2="17.5575" gradientUnits="userSpaceOnUse">
<stop stop-color="#FFED72"/>
<stop offset="1" stop-color="#FB9700"/>
</linearGradient>
<linearGradient id="paint2_linear_1461_322" x1="82.0924" y1="9.03223" x2="76.9774" y2="16.2968" gradientUnits="userSpaceOnUse">
<stop stop-color="#FFED72"/>
<stop offset="1" stop-color="#FB5A00"/>
</linearGradient>
<linearGradient id="paint3_linear_1461_322" x1="79.895" y1="9.03223" x2="79.895" y2="17.5575" gradientUnits="userSpaceOnUse">
<stop stop-color="#FFED72"/>
<stop offset="1" stop-color="#FB9700"/>
</linearGradient>
<linearGradient id="paint4_linear_1461_322" x1="82.4435" y1="9.0321" x2="77.0735" y2="16.6587" gradientUnits="userSpaceOnUse">
<stop stop-color="#FFED72"/>
<stop offset="1" stop-color="#FB5A00"/>
</linearGradient>
<linearGradient id="paint5_linear_1461_322" x1="80.1366" y1="9.0321" x2="80.1366" y2="17.9823" gradientUnits="userSpaceOnUse">
<stop stop-color="#FFED72"/>
<stop offset="1" stop-color="#FB9700"/>
</linearGradient>
<linearGradient id="paint6_linear_1461_322" x1="82.4435" y1="9.0321" x2="77.0735" y2="16.6587" gradientUnits="userSpaceOnUse">
<stop stop-color="#FFED72"/>
<stop offset="1" stop-color="#FB5A00"/>
</linearGradient>
<linearGradient id="paint7_linear_1461_322" x1="80.1366" y1="9.0321" x2="80.1366" y2="17.9823" gradientUnits="userSpaceOnUse">
<stop stop-color="#FFED72"/>
<stop offset="1" stop-color="#FB9700"/>
</linearGradient>
<clipPath id="clip0_1461_322">
<rect width="157" height="31" fill="white"/>
</clipPath>
</defs>
</svg>
